<?xml version="1.0" encoding="UTF-8"?>
<svg width="693px" height="156px" viewBox="0 0 693 156" version="1.1" xmlns="http://www.w3.org/2000/svg" xmlns:xlink="http://www.w3.org/1999/xlink">
    <title>Artboard Copy 3</title>
    <g id="Artboard-Copy-3" stroke="none" stroke-width="1" fill="none" fill-rule="evenodd">
        <g id="Icon" fill="#273D75" fill-rule="nonzero">
            <g id="&lt;">
                <polygon id="Path" points="0 55.8135306 90 87.1875 90 65.0312197 22.1603774 43.2977692 90 21.6488846 90 0 0 31.3739694"></polygon>
            </g>
            <g id="&gt;" transform="translate(0, 68.4375)">
                <polygon id="Path" points="90 31.3739694 0 0 0 22.1562803 67.754717 43.8051649 0 65.5386154 0 87.1875 90 55.8135306"></polygon>
            </g>
        </g>
        <g id="SCATA" transform="translate(180.2715, 23.1689)" fill="#273D75" fill-rule="nonzero">
            <path d="M91.6655273,76.5 C91.6655273,86.8095703 87.8430176,94.6911621 80.197998,100.144775 C72.5529785,105.598389 61.3344727,108.325195 46.5424805,108.325195 C19.8969727,108.325195 4.3828125,98.6879883 0,79.4135742 L21.2915039,75.9023438 C22.7358398,81.4804688 25.5498047,85.5270996 29.7333984,88.0422363 C33.9169922,90.557373 39.7192383,91.8149414 47.1401367,91.8149414 C54.8598633,91.8149414 60.637207,90.6445312 64.472168,88.3037109 C68.3071289,85.9628906 70.2246094,82.4516602 70.2246094,77.7700195 C70.2246094,74.7817383 69.3530273,72.3164062 67.6098633,70.3740234 C65.8666992,68.4316406 63.3764648,66.8129883 60.1391602,65.5180664 C58.5454102,64.8706055 56.2045898,64.1608887 53.1166992,63.388916 C50.0288086,62.6169434 46.1938477,61.7578125 41.6118164,60.8115234 C36.3325195,59.5664062 32.1987305,58.5080566 29.2104492,57.6364746 C26.222168,56.7648926 23.831543,55.9182129 22.0385742,55.0964355 C20.2456055,54.2746582 18.5024414,53.3657227 16.809082,52.3696289 C13.0737305,50.128418 10.1601562,47.1401367 8.06835938,43.4047852 C5.9765625,39.6694336 4.93066406,35.0126953 4.93066406,29.4345703 C4.93066406,19.921875 8.50415039,12.6379395 15.651123,7.58276367 C22.7980957,2.52758789 33.1948242,0 46.8413086,0 C59.8901367,0 69.689209,2.04199219 76.2385254,6.12597656 C82.7878418,10.2099609 87.0087891,16.9584961 88.9013672,26.371582 L67.5351562,29.2851562 C66.4394531,24.7529297 64.2106934,21.3413086 60.848877,19.050293 C57.4870605,16.7592773 52.668457,15.6137695 46.3930664,15.6137695 C39.7192383,15.6137695 34.7138672,16.659668 31.3769531,18.7514648 C28.0400391,20.8432617 26.371582,23.980957 26.371582,28.1645508 C26.371582,30.9038086 27.0812988,33.1450195 28.5007324,34.8881836 C29.920166,36.6313477 32.0244141,38.1254883 34.8134766,39.3706055 C37.453125,40.565918 43.105957,42.0849609 51.7719727,43.9277344 C56.8022461,45.0234375 61.1352539,46.0568848 64.7709961,47.0280762 C68.4067383,47.9992676 71.3203125,48.9331055 73.5117188,49.8295898 C75.703125,50.7758789 77.657959,51.7719727 79.3762207,52.8178711 C81.0944824,53.8637695 82.5761719,54.984375 83.8212891,56.1796875 C86.3613281,58.6201172 88.3037109,61.5212402 89.6484375,64.8830566 C90.9931641,68.244873 91.6655273,72.1171875 91.6655273,76.5 Z" id="Path"></path>
            <path d="M161.03418,90.9931641 C174.381836,90.9931641 183.620605,84.3193359 188.750488,70.9716797 L207.950195,78.2182617 C203.816406,88.378418 197.752686,95.9362793 189.759033,100.891846 C181.765381,105.847412 172.19043,108.325195 161.03418,108.325195 C149.77832,108.325195 140.190918,106.171143 132.271973,101.863037 C124.353027,97.5549316 118.314209,91.3168945 114.155518,83.1489258 C109.996826,74.980957 107.91748,65.1694336 107.91748,53.7143555 C107.91748,42.159668 109.909668,32.3979492 113.894043,24.4291992 C117.878418,16.4604492 123.755371,10.3967285 131.524902,6.23803711 C139.294434,2.0793457 148.807129,0 160.062988,0 C172.414551,0 182.475098,2.4777832 190.244629,7.43334961 C198.01416,12.388916 203.467773,19.6728516 206.605469,29.2851562 L187.181641,34.5893555 C185.538086,29.3100586 182.313232,25.1140137 177.50708,22.0012207 C172.700928,18.8884277 167.035645,17.3320312 160.51123,17.3320312 C150.550293,17.3320312 142.992432,20.4199219 137.837646,26.5957031 C132.682861,32.7714844 130.105469,41.8110352 130.105469,53.7143555 C130.105469,61.7827148 131.28833,68.5810547 133.654053,74.109375 C136.019775,79.6376953 139.506104,83.8337402 144.113037,86.6975098 C148.719971,89.5612793 154.360352,90.9931641 161.03418,90.9931641 Z" id="Path"></path>
            <path d="M251.320801,79.9365234 L241.982422,106.831055 L219.943848,106.831055 L258.343262,1.56884766 L284.341309,1.56884766 L322.591309,106.831055 L300.776855,106.831055 L291.438477,79.9365234 L251.320801,79.9365234 Z M271.342285,17.7802734 C270.844238,19.7724609 270.146973,22.1630859 269.250488,24.9521484 C268.354004,27.7412109 267.706543,29.7084961 267.308105,30.8540039 L256.251465,63.3515625 L286.507812,63.3515625 L275.152344,30.1816406 C274.455078,28.1396484 273.807617,26.0727539 273.209961,23.980957 C272.612305,21.8891602 271.989746,19.8222656 271.342285,17.7802734 Z" id="Shape"></path>
            <polygon id="Path" points="377.018555 18.6020508 377.018555 106.831055 354.97998 106.831055 354.97998 18.6020508 320.988281 18.6020508 320.988281 1.56884766 411.084961 1.56884766 411.084961 18.6020508"></polygon>
            <path d="M440.560059,79.9365234 L431.22168,106.831055 L409.183105,106.831055 L447.58252,1.56884766 L473.580566,1.56884766 L511.830566,106.831055 L490.016113,106.831055 L480.677734,79.9365234 L440.560059,79.9365234 Z M460.581543,17.7802734 C460.083496,19.7724609 459.38623,22.1630859 458.489746,24.9521484 C457.593262,27.7412109 456.945801,29.7084961 456.547363,30.8540039 L445.490723,63.3515625 L475.74707,63.3515625 L464.391602,30.1816406 C463.694336,28.1396484 463.046875,26.0727539 462.449219,23.980957 C461.851562,21.8891602 461.229004,19.8222656 460.581543,17.7802734 Z" id="Shape"></path>
        </g>
    </g>
</svg>