<?xml version="1.0" encoding="UTF-8"?>
<svg width="707px" height="176px" viewBox="0 0 707 176" version="1.1" xmlns="http://www.w3.org/2000/svg" xmlns:xlink="http://www.w3.org/1999/xlink">
    <title>Artboard</title>
    <g id="Artboard" stroke="none" stroke-width="1" fill="none" fill-rule="evenodd">
        <g id="logo-darkmode" transform="translate(6, 11)" fill="#273D75" fill-rule="nonzero" stroke="#FFFFFF" stroke-width="4">
            <g id="Icon">
                <g id="&lt;">
                    <path d="M92,-2.81523777 L92,23.1100156 L28.7273867,43.3014826 L92,63.5718225 L92,90.0027378 L-2,57.2343697 L-2,29.9531303 L92,-2.81523777 Z" id="Path"></path>
                </g>
                <g id="&gt;" transform="translate(0, 68.4375)">
                    <path d="M-2,-2.81523777 L92,29.9531303 L92,57.2343697 L-2,90.0027378 L-2,64.0797761 L61.195164,43.8088779 L-2,23.6168548 L-2,-2.81523777 Z" id="Path"></path>
                </g>
            </g>
            <g id="SCATA" transform="translate(180.2715, 23.1689)">
                <path d="M46.8413086,-2 C60.380058,-2 70.5117003,0.197891401 77.2967826,4.42889329 C84.7476689,9.0750733 89.4522609,16.9122716 91.2395059,28.0712543 L65.9451419,31.5204857 C65.1554436,26.6468331 63.1160409,23.0155852 59.7225833,20.7030066 C56.6226955,18.5904906 52.1592739,17.6137695 46.3930664,17.6137695 C40.2119177,17.6137695 35.5400775,18.5022202 32.4392235,20.446039 C29.7030315,22.1612638 28.371582,24.7481587 28.371582,28.1645508 C28.371582,30.3763305 28.8987728,32.2095731 30.0516041,33.6253309 C31.3025088,35.1615296 33.1766209,36.4496166 35.6384917,37.5486971 C38.2137083,38.714833 43.7360038,40.174219 52.1976352,41.9735565 C57.2629581,43.0768941 61.6260743,44.1178689 65.2871451,45.0958262 C69.0237638,46.093964 72.0168882,47.0571839 74.2689844,47.9784959 C76.5886248,48.9797525 78.6252845,50.0194035 80.4161146,51.109474 C82.2687857,52.2371868 83.8640158,53.4482694 85.2069413,54.7374781 C87.9513828,57.3742945 90.0523124,60.5075793 91.5053909,64.1402752 C92.9360986,67.7170444 93.6655273,71.8349666 93.6655273,76.5 C93.6655273,87.5372709 89.5309277,95.9438087 81.3594709,101.772958 C73.450617,107.41478 61.8688693,110.325195 46.5424805,110.325195 C32.7613486,110.325195 21.8833723,107.775619 13.8673929,102.796191 C5.11093581,97.3567867 -0.322783337,89.0318507 -2.37536936,77.7782881 L22.827713,73.6219904 C23.9677812,79.5369004 26.5700265,83.8068406 30.7638899,86.3281514 C34.6998119,88.6943901 40.1727485,89.8149414 47.1401367,89.8149414 C54.3759629,89.8149414 59.8257621,88.7966894 63.4301649,86.5965994 C66.6436242,84.6351372 68.2246094,81.6830502 68.2246094,77.7700195 C68.2246094,75.3322691 67.5497031,73.3014044 66.1213788,71.7098429 C64.5549103,69.9643496 62.3003447,68.5366062 59.3864061,67.3709996 C57.8537334,66.7483513 55.6008291,66.0715013 52.631628,65.329201 C49.5653783,64.5626386 45.757223,63.7098459 41.2073092,62.7701898 C39.3460634,62.3314947 37.6297596,61.9167225 36.0561174,61.5254314 L35.0281326,61.2680446 C32.510883,60.63325 30.3885078,60.0634083 28.6504492,59.5564746 C25.5474555,58.6514348 23.0668962,57.7678129 21.2052648,56.9145652 C19.3503277,56.0643857 17.5469263,55.1240177 15.7950417,54.0934973 C11.7378312,51.6592592 8.58680164,48.4238746 6.32334734,44.3819919 C4.08523074,40.3853551 2.93066406,35.4099339 2.93066406,29.4345703 C2.93066406,19.1950663 6.81517812,11.3828458 14.4961936,5.94993239 C21.9078088,0.70757044 32.6667016,-2 46.8413086,-2 Z" id="Path"></path>
                <path d="M160.062988,-2 C172.865722,-2 183.273736,0.614986144 191.320128,5.74714025 C200.003139,11.2853432 205.952414,19.5807802 209.120336,30.6716345 L185.769158,37.0483025 C184.488206,31.332882 181.364361,26.8822938 176.419856,23.6798941 C171.921154,20.7662263 166.6135,19.3320312 160.51123,19.3320312 C151.257023,19.3320312 144.178783,22.1197246 139.373073,27.8772894 C134.461895,33.7612127 132.105469,42.402914 132.105469,53.7143555 C132.105469,61.4675969 133.218318,68.0074981 135.492771,73.3225363 C137.683872,78.442794 140.898569,82.3444054 145.168905,84.9989391 C149.48837,87.6840113 154.783864,88.9931641 161.03418,88.9931641 C167.238939,88.9931641 172.502836,87.4727651 176.802858,84.3665498 C181.561785,80.9288344 185.118829,75.5780224 187.559077,68.3842895 L210.5472,77.0607405 C206.236084,88.6285284 199.637686,97.1208419 190.812836,102.591699 C182.525928,107.729065 172.605404,110.325195 161.03418,110.325195 C149.398897,110.325195 139.498296,108.071147 131.316205,103.619883 C123.037219,99.1159067 116.721302,92.5962939 112.373232,84.0563704 C108.086331,75.6365896 105.91748,65.5271273 105.91748,53.7143555 C105.91748,41.8016433 107.999123,31.7469036 112.105189,23.534772 C116.280297,15.184555 122.440036,8.83229091 130.581087,4.47474117 C138.607574,0.17851297 148.429128,-2 160.062988,-2 Z" id="Path"></path>
                <path d="M285.742503,-0.43115234 L325.446016,108.831055 L299.354166,108.831055 L290.015788,81.9365234 L252.74349,81.9365234 L243.405111,108.831055 L217.08533,108.831055 L256.943935,-0.43115234 L285.742503,-0.43115234 Z M271.38,24.854 L271.34693,24.9621509 C271.28384,25.1607551 271.219711,25.3614272 271.154545,25.5641671 C270.252895,28.3693014 269.601016,30.3493892 269.199347,31.5045796 L259.044512,61.3515625 L283.709175,61.3515625 L273.260153,30.8294175 C272.693221,29.1691174 272.158981,27.4935858 271.657183,25.802057 L271.38,24.854 Z" id="Shape"></path>
                <path d="M413.084961,-0.43115234 L413.084961,20.6020508 L379.018555,20.6020508 L379.018555,108.831055 L352.97998,108.831055 L352.97998,20.6020508 L318.988281,20.6020508 L318.988281,-0.43115234 L413.084961,-0.43115234 Z" id="Path"></path>
                <path d="M474.98176,-0.43115234 L514.685273,108.831055 L488.593424,108.831055 L479.255045,81.9365234 L441.982748,81.9365234 L432.644369,108.831055 L406.324587,108.831055 L446.183193,-0.43115234 L474.98176,-0.43115234 Z M460.62,24.854 L460.586188,24.9621503 C460.523098,25.1607545 460.45897,25.3614266 460.393803,25.5641665 C459.492153,28.3693014 458.840274,30.3493892 458.438605,31.5045796 L448.28377,61.3515625 L472.948433,61.3515625 L462.499411,30.8294175 C461.932479,29.1691174 461.398239,27.4935858 460.896441,25.802057 L460.62,24.854 Z" id="Shape"></path>
            </g>
        </g>
    </g>
</svg>